<svg xmlns="http://www.w3.org/2000/svg" viewBox="0 0 720 296" role="img" aria-labelledby="title" font-family="-apple-system, BlinkMacSystemFont, Segoe UI, Helvetica, Arial, sans-serif">
<title id="title">Per-feature ablation (ΔNDCG@10)</title>
<rect width="720" height="296" fill="white"/>
<text x="360.0" y="24.0" font-size="15" text-anchor="middle" fill="#374151" font-weight="bold">Per-feature ablation — ΔNDCG@10 when each weight is zeroed</text>
<text x="360.0" y="42.0" font-size="10" text-anchor="middle" fill="#6B7280" font-weight="normal">Red bars to the right: removing the feature made the ranker worse (so it was helping).</text>
<line x1="180.0" y1="56.0" x2="180.0" y2="256.0" stroke="#E5E7EB" stroke-width="1.0"/>
<text x="180.0" y="272.0" font-size="10" text-anchor="middle" fill="#374151" font-weight="normal">-0.020</text>
<line x1="309.0" y1="56.0" x2="309.0" y2="256.0" stroke="#E5E7EB" stroke-width="1.0"/>
<text x="309.0" y="272.0" font-size="10" text-anchor="middle" fill="#374151" font-weight="normal">-0.010</text>
<line x1="438.0" y1="56.0" x2="438.0" y2="256.0" stroke="#E5E7EB" stroke-width="1.0"/>
<text x="438.0" y="272.0" font-size="10" text-anchor="middle" fill="#374151" font-weight="normal">+0.000</text>
<line x1="567.0" y1="56.0" x2="567.0" y2="256.0" stroke="#E5E7EB" stroke-width="1.0"/>
<text x="567.0" y="272.0" font-size="10" text-anchor="middle" fill="#374151" font-weight="normal">+0.010</text>
<line x1="696.0" y1="56.0" x2="696.0" y2="256.0" stroke="#E5E7EB" stroke-width="1.0"/>
<text x="696.0" y="272.0" font-size="10" text-anchor="middle" fill="#374151" font-weight="normal">+0.020</text>
<rect x="331.1" y="61.7" width="106.9" height="17.1" fill="#10B981"/>
<text x="172.0" y="74.3" font-size="11" text-anchor="end" fill="#374151" font-weight="normal">interest_overlap</text>
<text x="325.1" y="74.3" font-size="10" text-anchor="end" fill="#374151" font-weight="normal">-0.008</text>
<rect x="438.0" y="90.3" width="7.9" height="17.1" fill="#DC2626"/>
<text x="172.0" y="102.9" font-size="11" text-anchor="end" fill="#374151" font-weight="normal">liked_topic_overlap</text>
<text x="451.9" y="102.9" font-size="10" text-anchor="start" fill="#374151" font-weight="normal">+0.001</text>
<rect x="438.0" y="118.9" width="1.5" height="17.1" fill="#DC2626"/>
<text x="172.0" y="131.4" font-size="11" text-anchor="end" fill="#374151" font-weight="normal">mutual_friends</text>
<text x="444.0" y="131.4" font-size="10" text-anchor="start" fill="#374151" font-weight="normal">+0.000</text>
<rect x="356.8" y="147.4" width="81.2" height="17.1" fill="#10B981"/>
<text x="172.0" y="160.0" font-size="11" text-anchor="end" fill="#374151" font-weight="normal">hometown_match</text>
<text x="350.8" y="160.0" font-size="10" text-anchor="end" fill="#374151" font-weight="normal">-0.006</text>
<rect x="438.0" y="176.0" width="29.0" height="17.1" fill="#DC2626"/>
<text x="172.0" y="188.6" font-size="11" text-anchor="end" fill="#374151" font-weight="normal">college_match</text>
<text x="473.0" y="188.6" font-size="10" text-anchor="start" fill="#374151" font-weight="normal">+0.002</text>
<rect x="201.8" y="204.6" width="236.2" height="17.1" fill="#10B981"/>
<text x="172.0" y="217.1" font-size="11" text-anchor="end" fill="#374151" font-weight="normal">age_compatibility</text>
<text x="195.8" y="217.1" font-size="10" text-anchor="end" fill="#374151" font-weight="normal">-0.018</text>
<rect x="438.0" y="233.1" width="1.5" height="17.1" fill="#DC2626"/>
<text x="172.0" y="245.7" font-size="11" text-anchor="end" fill="#374151" font-weight="normal">semantic_similarity</text>
<text x="444.0" y="245.7" font-size="10" text-anchor="start" fill="#374151" font-weight="normal">+0.000</text>
<line x1="438.0" y1="56.0" x2="438.0" y2="256.0" stroke="#374151" stroke-width="1.5"/>
</svg>
