<svg xmlns="http://www.w3.org/2000/svg" viewBox="0 0 720 360" role="img" aria-labelledby="title" font-family="-apple-system, BlinkMacSystemFont, Segoe UI, Helvetica, Arial, sans-serif">
<title id="title">NDCG@10 by label set</title>
<rect width="720" height="360" fill="white"/>
<text x="360.0" y="28.0" font-size="16" text-anchor="middle" fill="#374151" font-weight="bold">NDCG@10: rules vs random across three label sets</text>
<line x1="56.0" y1="280.0" x2="696.0" y2="280.0" stroke="#E5E7EB" stroke-width="1.0"/>
<text x="48.0" y="284.0" font-size="11" text-anchor="end" fill="#374151" font-weight="normal">0.00</text>
<line x1="56.0" y1="225.0" x2="696.0" y2="225.0" stroke="#E5E7EB" stroke-width="1.0"/>
<text x="48.0" y="229.0" font-size="11" text-anchor="end" fill="#374151" font-weight="normal">0.25</text>
<line x1="56.0" y1="170.0" x2="696.0" y2="170.0" stroke="#E5E7EB" stroke-width="1.0"/>
<text x="48.0" y="174.0" font-size="11" text-anchor="end" fill="#374151" font-weight="normal">0.50</text>
<line x1="56.0" y1="115.0" x2="696.0" y2="115.0" stroke="#E5E7EB" stroke-width="1.0"/>
<text x="48.0" y="119.0" font-size="11" text-anchor="end" fill="#374151" font-weight="normal">0.75</text>
<line x1="56.0" y1="60.0" x2="696.0" y2="60.0" stroke="#E5E7EB" stroke-width="1.0"/>
<text x="48.0" y="64.0" font-size="11" text-anchor="end" fill="#374151" font-weight="normal">1.00</text>
<rect x="88.0" y="231.5" width="68.3" height="48.5" fill="#9CA3AF"/>
<text x="122.1" y="227.5" font-size="10" text-anchor="middle" fill="#374151" font-weight="normal">0.221</text>
<rect x="169.1" y="61.1" width="68.3" height="218.9" fill="#2563EB"/>
<text x="203.2" y="57.1" font-size="10" text-anchor="middle" fill="#374151" font-weight="normal">0.995</text>
<text x="162.7" y="302.0" font-size="12" text-anchor="middle" fill="#374151" font-weight="bold">rule_based</text>
<rect x="301.3" y="208.6" width="68.3" height="71.4" fill="#9CA3AF"/>
<text x="335.5" y="204.6" font-size="10" text-anchor="middle" fill="#374151" font-weight="normal">0.324</text>
<rect x="382.4" y="90.9" width="68.3" height="189.1" fill="#2563EB"/>
<text x="416.5" y="86.9" font-size="10" text-anchor="middle" fill="#374151" font-weight="normal">0.860</text>
<text x="376.0" y="302.0" font-size="12" text-anchor="middle" fill="#374151" font-weight="bold">noisy</text>
<rect x="514.7" y="197.7" width="68.3" height="82.3" fill="#9CA3AF"/>
<text x="548.8" y="193.7" font-size="10" text-anchor="middle" fill="#374151" font-weight="normal">0.374</text>
<rect x="595.7" y="177.6" width="68.3" height="102.4" fill="#2563EB"/>
<text x="629.9" y="173.6" font-size="10" text-anchor="middle" fill="#374151" font-weight="normal">0.466</text>
<text x="589.3" y="302.0" font-size="12" text-anchor="middle" fill="#374151" font-weight="bold">simulated</text>
<rect x="56.0" y="332.0" width="12.0" height="12.0" fill="#9CA3AF"/>
<text x="74.0" y="342.0" font-size="11" text-anchor="start" fill="#374151" font-weight="normal">random baseline</text>
<rect x="206.0" y="332.0" width="12.0" height="12.0" fill="#2563EB"/>
<text x="224.0" y="342.0" font-size="11" text-anchor="start" fill="#374151" font-weight="normal">rules (Phase 1)</text>
<text x="360.0" y="336.0" font-size="10" text-anchor="middle" fill="#6B7280" font-weight="normal">rule_based and noisy share signals with the ranker (inflated). simulated holds out a hidden personality vector → realistic ceiling.</text>
</svg>
