<svg xmlns="http://www.w3.org/2000/svg" viewBox="0 0 720 360" role="img" aria-labelledby="title" font-family="-apple-system, BlinkMacSystemFont, Segoe UI, Helvetica, Arial, sans-serif">
<title id="title">NDCG vs k (simulated labels)</title>
<rect width="720" height="360" fill="white"/>
<text x="360.0" y="24.0" font-size="16" text-anchor="middle" fill="#374151" font-weight="bold">NDCG vs k — rules vs random (simulated labels)</text>
<text x="360.0" y="42.0" font-size="10" text-anchor="middle" fill="#6B7280" font-weight="normal">Simulated labels mix observable affinity with a hidden personality vector — a realistic ceiling.</text>
<line x1="56.0" y1="296.0" x2="696.0" y2="296.0" stroke="#E5E7EB" stroke-width="1.0"/>
<text x="48.0" y="300.0" font-size="11" text-anchor="end" fill="#374151" font-weight="normal">0.0</text>
<line x1="56.0" y1="256.0" x2="696.0" y2="256.0" stroke="#E5E7EB" stroke-width="1.0"/>
<text x="48.0" y="260.0" font-size="11" text-anchor="end" fill="#374151" font-weight="normal">0.1</text>
<line x1="56.0" y1="216.0" x2="696.0" y2="216.0" stroke="#E5E7EB" stroke-width="1.0"/>
<text x="48.0" y="220.0" font-size="11" text-anchor="end" fill="#374151" font-weight="normal">0.2</text>
<line x1="56.0" y1="176.0" x2="696.0" y2="176.0" stroke="#E5E7EB" stroke-width="1.0"/>
<text x="48.0" y="180.0" font-size="11" text-anchor="end" fill="#374151" font-weight="normal">0.3</text>
<line x1="56.0" y1="136.0" x2="696.0" y2="136.0" stroke="#E5E7EB" stroke-width="1.0"/>
<text x="48.0" y="140.0" font-size="11" text-anchor="end" fill="#374151" font-weight="normal">0.4</text>
<line x1="56.0" y1="96.0" x2="696.0" y2="96.0" stroke="#E5E7EB" stroke-width="1.0"/>
<text x="48.0" y="100.0" font-size="11" text-anchor="end" fill="#374151" font-weight="normal">0.5</text>
<line x1="56.0" y1="56.0" x2="696.0" y2="56.0" stroke="#E5E7EB" stroke-width="1.0"/>
<text x="48.0" y="60.0" font-size="11" text-anchor="end" fill="#374151" font-weight="normal">0.6</text>
<text x="56.0" y="314.0" font-size="11" text-anchor="middle" fill="#374151" font-weight="normal">k=5</text>
<text x="269.3" y="314.0" font-size="11" text-anchor="middle" fill="#374151" font-weight="normal">k=10</text>
<text x="482.7" y="314.0" font-size="11" text-anchor="middle" fill="#374151" font-weight="normal">k=20</text>
<text x="696.0" y="314.0" font-size="11" text-anchor="middle" fill="#374151" font-weight="normal">k=50</text>
<line x1="56.0" y1="141.7" x2="269.3" y2="146.4" stroke="#9CA3AF" stroke-width="2.5"/>
<line x1="269.3" y1="146.4" x2="482.7" y2="144.5" stroke="#9CA3AF" stroke-width="2.5"/>
<line x1="482.7" y1="144.5" x2="696.0" y2="143.7" stroke="#9CA3AF" stroke-width="2.5"/>
<circle cx="56.0" cy="141.7" r="4" fill="#9CA3AF"/>
<text x="56.0" y="131.7" font-size="10" text-anchor="middle" fill="#9CA3AF" font-weight="normal">0.39</text>
<circle cx="269.3" cy="146.4" r="4" fill="#9CA3AF"/>
<text x="269.3" y="136.4" font-size="10" text-anchor="middle" fill="#9CA3AF" font-weight="normal">0.37</text>
<circle cx="482.7" cy="144.5" r="4" fill="#9CA3AF"/>
<text x="482.7" y="134.5" font-size="10" text-anchor="middle" fill="#9CA3AF" font-weight="normal">0.38</text>
<circle cx="696.0" cy="143.7" r="4" fill="#9CA3AF"/>
<text x="696.0" y="133.7" font-size="10" text-anchor="middle" fill="#9CA3AF" font-weight="normal">0.38</text>
<line x1="56.0" y1="110.6" x2="269.3" y2="111.0" stroke="#2563EB" stroke-width="2.5"/>
<line x1="269.3" y1="111.0" x2="482.7" y2="110.4" stroke="#2563EB" stroke-width="2.5"/>
<line x1="482.7" y1="110.4" x2="696.0" y2="113.5" stroke="#2563EB" stroke-width="2.5"/>
<circle cx="56.0" cy="110.6" r="4" fill="#2563EB"/>
<text x="56.0" y="100.6" font-size="10" text-anchor="middle" fill="#2563EB" font-weight="normal">0.46</text>
<circle cx="269.3" cy="111.0" r="4" fill="#2563EB"/>
<text x="269.3" y="101.0" font-size="10" text-anchor="middle" fill="#2563EB" font-weight="normal">0.46</text>
<circle cx="482.7" cy="110.4" r="4" fill="#2563EB"/>
<text x="482.7" y="100.4" font-size="10" text-anchor="middle" fill="#2563EB" font-weight="normal">0.46</text>
<circle cx="696.0" cy="113.5" r="4" fill="#2563EB"/>
<text x="696.0" y="103.5" font-size="10" text-anchor="middle" fill="#2563EB" font-weight="normal">0.46</text>
<rect x="56.0" y="336.0" width="12.0" height="12.0" fill="#9CA3AF"/>
<text x="74.0" y="346.0" font-size="11" text-anchor="start" fill="#374151" font-weight="normal">random baseline</text>
<rect x="206.0" y="336.0" width="12.0" height="12.0" fill="#2563EB"/>
<text x="224.0" y="346.0" font-size="11" text-anchor="start" fill="#374151" font-weight="normal">rules (Phase 1)</text>
</svg>
